<mxfile host="app.diagrams.net" modified="2023-06-07T15:38:43.463Z" agent="Mozilla/5.0 (Macintosh; Intel Mac OS X 10_15_7) AppleWebKit/537.36 (KHTML, like Gecko) Chrome/111.0.0.0 Safari/537.36" etag="-DdglRseAyXPh3zC5BB5" version="21.3.7" type="device">
  <diagram name="페이지-1" id="MJKrPpaomLurx512L3K9">
    <mxGraphModel dx="794" dy="1167" grid="1" gridSize="10" guides="1" tooltips="1" connect="1" arrows="1" fold="1" page="1" pageScale="1" pageWidth="827" pageHeight="1169" math="0" shadow="0">
      <root>
        <mxCell id="0" />
        <mxCell id="1" parent="0" />
        <mxCell id="8fTu827p5p2T2V1Nwwxj-1" value="Actor" style="shape=umlActor;verticalLabelPosition=bottom;verticalAlign=top;html=1;outlineConnect=0;" vertex="1" parent="1">
          <mxGeometry x="90" y="180" width="30" height="60" as="geometry" />
        </mxCell>
        <mxCell id="8fTu827p5p2T2V1Nwwxj-3" value="" style="endArrow=classic;startArrow=classic;html=1;rounded=0;exitX=1;exitY=0.3333333333333333;exitDx=0;exitDy=0;exitPerimeter=0;entryX=0;entryY=0.5;entryDx=0;entryDy=0;" edge="1" parent="1" source="8fTu827p5p2T2V1Nwwxj-1" target="8fTu827p5p2T2V1Nwwxj-2">
          <mxGeometry width="50" height="50" relative="1" as="geometry">
            <mxPoint x="380" y="620" as="sourcePoint" />
            <mxPoint x="430" y="570" as="targetPoint" />
          </mxGeometry>
        </mxCell>
        <mxCell id="8fTu827p5p2T2V1Nwwxj-4" value="flask node" style="whiteSpace=wrap;html=1;aspect=fixed;" vertex="1" parent="1">
          <mxGeometry x="510" y="160" width="80" height="80" as="geometry" />
        </mxCell>
        <mxCell id="8fTu827p5p2T2V1Nwwxj-5" value="" style="endArrow=classic;startArrow=classic;html=1;rounded=0;exitX=1;exitY=0.5;exitDx=0;exitDy=0;entryX=0;entryY=0.5;entryDx=0;entryDy=0;" edge="1" parent="1" source="8fTu827p5p2T2V1Nwwxj-2" target="8fTu827p5p2T2V1Nwwxj-4">
          <mxGeometry width="50" height="50" relative="1" as="geometry">
            <mxPoint x="380" y="620" as="sourcePoint" />
            <mxPoint x="430" y="570" as="targetPoint" />
          </mxGeometry>
        </mxCell>
        <mxCell id="8fTu827p5p2T2V1Nwwxj-6" value="mysql db" style="shape=cylinder3;whiteSpace=wrap;html=1;boundedLbl=1;backgroundOutline=1;size=15;" vertex="1" parent="1">
          <mxGeometry x="515" y="440" width="70" height="80" as="geometry" />
        </mxCell>
        <mxCell id="8fTu827p5p2T2V1Nwwxj-7" value="mysql node" style="whiteSpace=wrap;html=1;aspect=fixed;" vertex="1" parent="1">
          <mxGeometry x="510" y="300" width="80" height="80" as="geometry" />
        </mxCell>
        <mxCell id="8fTu827p5p2T2V1Nwwxj-8" value="" style="endArrow=classic;startArrow=classic;html=1;rounded=0;entryX=0.5;entryY=1;entryDx=0;entryDy=0;exitX=0.5;exitY=0;exitDx=0;exitDy=0;" edge="1" parent="1" source="8fTu827p5p2T2V1Nwwxj-7" target="8fTu827p5p2T2V1Nwwxj-4">
          <mxGeometry width="50" height="50" relative="1" as="geometry">
            <mxPoint x="380" y="620" as="sourcePoint" />
            <mxPoint x="430" y="570" as="targetPoint" />
          </mxGeometry>
        </mxCell>
        <mxCell id="8fTu827p5p2T2V1Nwwxj-11" value="" style="endArrow=classic;startArrow=classic;html=1;rounded=0;entryX=0.5;entryY=1;entryDx=0;entryDy=0;exitX=0.5;exitY=0;exitDx=0;exitDy=0;exitPerimeter=0;" edge="1" parent="1" source="8fTu827p5p2T2V1Nwwxj-6" target="8fTu827p5p2T2V1Nwwxj-7">
          <mxGeometry width="50" height="50" relative="1" as="geometry">
            <mxPoint x="380" y="620" as="sourcePoint" />
            <mxPoint x="430" y="570" as="targetPoint" />
          </mxGeometry>
        </mxCell>
        <mxCell id="8fTu827p5p2T2V1Nwwxj-13" value="" style="swimlane;startSize=0;" vertex="1" parent="1">
          <mxGeometry x="280" y="110" width="370" height="450" as="geometry" />
        </mxCell>
        <mxCell id="8fTu827p5p2T2V1Nwwxj-2" value="nginx node" style="whiteSpace=wrap;html=1;aspect=fixed;" vertex="1" parent="8fTu827p5p2T2V1Nwwxj-13">
          <mxGeometry x="54" y="50" width="80" height="80" as="geometry" />
        </mxCell>
        <mxCell id="8fTu827p5p2T2V1Nwwxj-14" value="server" style="text;html=1;align=center;verticalAlign=middle;resizable=0;points=[];autosize=1;strokeColor=none;fillColor=none;" vertex="1" parent="1">
          <mxGeometry x="430" y="118" width="60" height="30" as="geometry" />
        </mxCell>
      </root>
    </mxGraphModel>
  </diagram>
</mxfile>
